<svg width="251" height="72" viewBox="0 0 251 72" fill="none" xmlns="http://www.w3.org/2000/svg">
<path d="M54.0509 33.5132C58.5986 33.5132 60.0797 31.7715 60.0797 28.0571V18.1521H63.1046V28.0571C63.1046 33.1145 60.2466 36.3042 54.0509 36.3042C47.876 36.3042 45.0181 33.1145 45.0181 28.0571V18.1521H48.0429V28.0571C48.0429 31.7505 49.5032 33.5132 54.0509 33.5132Z" fill="black"/>
<path d="M70.0515 21.4048V35.9265H67.0266V18.1521H71.5117L82.1717 32.6738V18.1521H85.1966V35.9265H80.6489L70.0515 21.4048Z" fill="black"/>
<path d="M89.3687 18.1521H104.785L104.284 20.9431H92.3935V24.5526H102.261V27.3436H92.3935V33.1355H104.284L104.785 35.9265H89.3687V18.1521Z" fill="black"/>
<path d="M111.21 21.4048V35.9265H108.185V18.1521H112.67L123.33 32.6738V18.1521H126.355V35.9265H121.808L111.21 21.4048Z" fill="black"/>
<path d="M130.256 33.1355H136.139C140.562 33.1355 143.044 30.1346 143.044 27.0498C143.044 23.5453 140.311 20.9641 135.868 20.9641H130.235V18.1521H136.64C142.251 18.1521 146.111 22.0134 146.111 27.0288C146.111 32.0443 142.251 35.9055 136.64 35.9055H130.235V33.1355H130.256Z" fill="black"/>
<path d="M152.536 33.1355H162.925L163.425 35.9265H149.511V18.1521H152.536V33.1355Z" fill="black"/>
<path d="M166.075 18.1521H169.1V35.9265H166.075V18.1521Z" fill="black"/>
<path d="M191.65 31.9394C189.94 34.4786 186.811 36.3043 182.826 36.3043C176.651 36.3043 172.521 32.0863 172.521 27.0288C172.521 21.9714 176.63 17.7534 182.826 17.7534C187.04 17.7534 190.294 19.768 191.942 22.559L189.397 24.1749C188.25 21.8245 185.955 20.5654 182.805 20.5654C178.258 20.5654 175.546 23.3355 175.546 27.0498C175.546 30.7642 178.278 33.5342 182.805 33.5342C186.31 33.5342 188.73 31.9604 189.669 29.4631L191.65 31.9394Z" fill="black"/>
<path d="M210.342 26.9659H198.222V35.9265H195.197V18.1521H198.222V24.1748H210.342V18.1521H213.367V35.9265H210.342V26.9659Z" fill="black"/>
<path d="M217.539 18.1521H232.955L232.454 20.9431H220.564V24.5526H230.431V27.3436H220.564V33.1355H232.454L232.955 35.9265H217.539V18.1521Z" fill="black"/>
<path d="M22.3838 26.3993H18.0447V18.1731H22.3838C24.908 18.1731 26.7437 19.8939 26.7437 22.2862C26.7437 24.6785 24.908 26.3993 22.3838 26.3993ZM19.9013 24.6365H22.1752C23.9484 24.6365 24.8871 23.4613 24.8871 22.2862C24.8871 20.8802 23.7606 19.9358 22.0709 19.9358H19.9013V24.6365Z" fill="black"/>
<path d="M29.9562 26.3993H28.0996V18.1731H29.9562V26.3993Z" fill="black"/>
<path d="M39.1977 26.3993H31.9172V18.1731H39.1769L38.864 19.9358H33.7739V21.2579H38.0295V23.0207H33.7739V24.6365H38.864L39.1977 26.3993Z" fill="black"/>
<path d="M95.4602 46.6499L95.2516 47.7621H90.537V49.1891H94.438V50.3013H90.537V52.5887H95.2516L95.4602 53.7009H89.3479V46.6709H95.4602V46.6499Z" fill="black"/>
<path d="M97.7966 48.1608V48.9792C98.3598 48.3916 99.0274 48.0139 99.8618 48.0139C100.884 48.0139 102.094 48.6015 102.094 49.9026V53.7009H100.988V50.3852C100.988 49.6088 100.446 49.0632 99.5489 49.0632C98.9648 49.0632 98.4015 49.252 97.7966 49.9236V53.7009H96.6909V48.1608H97.7966Z" fill="black"/>
<path d="M103.346 50.9308C103.346 49.357 104.723 48.0139 106.496 48.0139C108.29 48.0139 109.646 49.357 109.646 50.8049C109.646 50.9938 109.625 51.2876 109.625 51.3925H104.556C104.764 52.3369 105.536 52.8825 106.642 52.8825C107.706 52.8825 108.206 52.3788 108.478 51.7912L109.521 52.2529C109.082 53.0923 108.102 53.8268 106.642 53.8268C104.702 53.8478 103.346 52.5047 103.346 50.9308ZM104.577 50.4482H108.436C108.227 49.5458 107.476 48.9792 106.517 48.9792C105.494 48.9792 104.764 49.5668 104.577 50.4482Z" fill="black"/>
<path d="M111.961 48.1608V49.0212C112.545 48.3287 113.171 48.0139 113.922 48.0139C114.256 48.0139 114.569 48.0769 114.777 48.2028V49.4619C114.506 49.2101 114.11 49.0632 113.672 49.0632C113.192 49.0632 112.545 49.294 111.961 49.9865V53.6799H110.855V48.1398H111.961V48.1608Z" fill="black"/>
<path d="M115.424 50.784C115.424 49.1051 116.676 48.0139 118.303 48.0139C119.263 48.0139 119.993 48.4126 120.493 48.9373V48.1818H121.578V53.1553C121.578 54.7501 120.389 55.8204 118.491 55.8204C116.613 55.8204 115.528 54.8341 115.466 53.512L116.801 53.8058C116.947 54.4144 117.385 54.8551 118.491 54.8551C119.701 54.8551 120.493 54.2675 120.493 53.1553V52.6516C119.993 53.1763 119.263 53.512 118.303 53.512C116.676 53.491 115.424 52.4628 115.424 50.784ZM120.493 50.784C120.493 49.6717 119.638 48.9792 118.491 48.9792C117.343 48.9792 116.571 49.6927 116.571 50.784C116.571 51.8962 117.343 52.5467 118.491 52.5467C119.68 52.5467 120.493 51.8962 120.493 50.784Z" fill="black"/>
<path d="M124.248 46.2722L124.207 47.5523H123.059L123.018 46.2722H124.248ZM124.186 48.1609V53.701H123.08V48.1609H124.186Z" fill="black"/>
<path d="M125.438 50.9308C125.438 49.357 126.814 48.0139 128.588 48.0139C130.382 48.0139 131.738 49.357 131.738 50.8049C131.738 50.9938 131.717 51.2876 131.717 51.3925H126.647C126.856 52.3369 127.628 52.8825 128.734 52.8825C129.797 52.8825 130.298 52.3788 130.569 51.7912L131.612 52.2529C131.174 53.0923 130.194 53.8268 128.734 53.8268C126.773 53.8478 125.438 52.5047 125.438 50.9308ZM126.647 50.4482H130.507C130.298 49.5458 129.547 48.9792 128.588 48.9792C127.586 48.9792 126.856 49.5668 126.647 50.4482Z" fill="black"/>
<path d="M136.994 48.161V47.4055C136.994 46.3772 137.975 45.9995 138.83 45.9995C139.498 45.9995 139.894 46.1674 140.186 46.3563L139.79 47.3216C139.623 47.1537 139.352 47.0278 138.914 47.0278C138.476 47.0278 138.1 47.1747 138.1 47.6783V48.182H139.894V49.1893H138.1V53.722H136.994V49.1893H135.68V48.182H136.994V48.161Z" fill="black"/>
<path d="M140.875 51.9592V48.1609H141.98V51.4765C141.98 52.253 142.523 52.7986 143.42 52.7986C144.004 52.7986 144.567 52.6097 145.172 51.9382V48.1609H146.278V53.701H145.172V52.8825C144.609 53.4701 143.941 53.8479 143.107 53.8479C142.084 53.8479 140.875 53.2603 140.875 51.9592ZM143.274 46.2722V47.5523H142.043V46.2722H143.274ZM145.109 46.2722V47.5523H143.879V46.2722H145.109Z" fill="black"/>
<path d="M148.864 48.1608V49.0212C149.449 48.3287 150.074 48.0139 150.825 48.0139C151.159 48.0139 151.472 48.0769 151.681 48.2028V49.4619C151.409 49.2101 151.013 49.0632 150.575 49.0632C150.095 49.0632 149.449 49.294 148.864 49.9865V53.6799H147.759V48.1398H148.864V48.1608Z" fill="black"/>
<path d="M164.489 50.9308C164.489 49.357 165.866 48.0139 167.639 48.0139C169.433 48.0139 170.789 49.357 170.789 50.8049C170.789 50.9938 170.768 51.2876 170.768 51.3925H165.699C165.908 52.3369 166.68 52.8825 167.785 52.8825C168.849 52.8825 169.35 52.3788 169.621 51.7912L170.664 52.2529C170.226 53.0923 169.246 53.8268 167.785 53.8268C165.845 53.8478 164.489 52.5047 164.489 50.9308ZM165.699 50.4482H169.558C169.35 49.5458 168.599 48.9792 167.639 48.9792C166.638 48.9792 165.908 49.5668 165.699 50.4482Z" fill="black"/>
<path d="M173.084 48.1608V48.9792C173.647 48.3916 174.315 48.0139 175.149 48.0139C176.172 48.0139 177.382 48.6015 177.382 49.9026V53.7009H176.276V50.3852C176.276 49.6088 175.733 49.0632 174.836 49.0632C174.252 49.0632 173.689 49.252 173.084 49.9236V53.7009H171.979V48.1608H173.084Z" fill="black"/>
<path d="M178.633 50.9308C178.633 49.357 180.01 48.0139 181.783 48.0139C183.577 48.0139 184.933 49.357 184.933 50.8049C184.933 50.9938 184.912 51.2876 184.912 51.3925H179.843C180.052 52.3369 180.823 52.8825 181.929 52.8825C182.993 52.8825 183.494 52.3788 183.765 51.7912L184.808 52.2529C184.37 53.0923 183.389 53.8268 181.929 53.8268C179.989 53.8478 178.633 52.5047 178.633 50.9308ZM179.864 50.4482H183.723C183.515 49.5458 182.764 48.9792 181.804 48.9792C180.782 48.9792 180.052 49.5668 179.864 50.4482Z" fill="black"/>
<path d="M187.249 48.1608V49.0212C187.833 48.3287 188.459 48.0139 189.21 48.0139C189.543 48.0139 189.856 48.0769 190.065 48.2028V49.4619C189.794 49.2101 189.397 49.0632 188.959 49.0632C188.48 49.0632 187.833 49.294 187.249 49.9865V53.6799H186.143V48.1398H187.249V48.1608Z" fill="black"/>
<path d="M190.753 52.085C190.753 50.8679 191.901 50.4482 193.298 50.3643C194.967 50.2384 195.405 50.1334 195.405 49.6718C195.405 49.336 194.863 48.9792 193.862 48.9792C192.902 48.9792 192.109 49.315 191.567 50.0285L190.941 49.2521C191.421 48.6855 192.318 48.0349 193.778 48.0349C195.489 48.0349 196.511 48.6855 196.511 49.5668V52.2529C196.511 52.6307 196.678 52.8195 196.991 52.8195C197.158 52.8195 197.283 52.7985 197.408 52.6726V53.491C197.179 53.7219 196.845 53.8268 196.469 53.8268C195.823 53.8268 195.551 53.3442 195.447 52.7985C194.863 53.4491 194.008 53.8268 192.923 53.8268C192.026 53.8478 190.753 53.4281 190.753 52.085ZM193.173 52.9244C194.133 52.9244 194.821 52.6307 195.405 51.9381V50.8469C194.926 51.0987 194.07 51.2247 193.444 51.2876C192.255 51.3925 191.963 51.6653 191.963 52.106C191.963 52.4628 192.214 52.9244 193.173 52.9244Z" fill="black"/>
<path d="M198.868 52.379V49.1682H197.554V48.1609H198.868V46.65L199.974 45.9365V48.1609H201.768V49.1682H199.974V52.0432C199.974 52.7567 200.412 52.8406 200.85 52.8406C201.288 52.8406 201.58 52.7777 201.768 52.6728V53.701C201.392 53.8059 201.1 53.8479 200.641 53.8479C199.89 53.8479 198.868 53.6171 198.868 52.379Z" fill="black"/>
<path d="M204.188 46.2722L204.146 47.5523H202.999L202.957 46.2722H204.188ZM204.104 48.1609V53.701H202.999V48.1609H204.104Z" fill="black"/>
<path d="M205.356 50.9308C205.356 49.357 206.608 48.0139 208.485 48.0139C210.363 48.0139 211.614 49.357 211.614 50.9308C211.614 52.5257 210.363 53.8478 208.485 53.8478C206.608 53.8478 205.356 52.5257 205.356 50.9308ZM210.488 50.9308C210.488 49.7767 209.612 48.9792 208.506 48.9792C207.338 48.9792 206.524 49.7767 206.524 50.9308C206.524 52.085 207.359 52.8825 208.506 52.8825C209.612 52.8825 210.488 52.085 210.488 50.9308Z" fill="black"/>
<path d="M213.993 48.1608V48.9792C214.556 48.3916 215.223 48.0139 216.058 48.0139C217.08 48.0139 218.29 48.6015 218.29 49.9026V53.7009H217.184V50.3852C217.184 49.6088 216.642 49.0632 215.745 49.0632C215.161 49.0632 214.598 49.252 213.993 49.9236V53.7009H212.887V48.1608H213.993Z" fill="black"/>
<path d="M219.542 50.9308C219.542 49.357 220.918 48.0139 222.692 48.0139C224.486 48.0139 225.842 49.357 225.842 50.8049C225.842 50.9938 225.821 51.2876 225.821 51.3925H220.751C220.96 52.3369 221.732 52.8825 222.838 52.8825C223.901 52.8825 224.402 52.3788 224.673 51.7912L225.716 52.2529C225.278 53.0923 224.298 53.8268 222.838 53.8268C220.877 53.8478 219.542 52.5047 219.542 50.9308ZM220.751 50.4482H224.611C224.402 49.5458 223.651 48.9792 222.692 48.9792C221.69 48.9792 220.96 49.5668 220.751 50.4482Z" fill="black"/>
<path d="M228.136 48.1608V48.9792C228.7 48.3916 229.367 48.0139 230.202 48.0139C231.224 48.0139 232.434 48.6015 232.434 49.9026V53.7009H231.328V50.3852C231.328 49.6088 230.786 49.0632 229.889 49.0632C229.305 49.0632 228.741 49.252 228.136 49.9236V53.7009H227.031V48.1608H228.136Z" fill="black"/>
<path d="M235 52.4209V53.701H233.706V52.4209H235Z" fill="black"/>
<path d="M158.899 49.4828L158.481 50.595H162.028V52.2319C161.61 52.5467 160.734 52.7565 159.921 52.7565C157.793 52.7565 156.729 51.6653 156.729 50.1963C156.729 48.7274 157.814 47.6361 159.608 47.6361C160.505 47.6361 161.235 47.9089 161.715 48.3916L162.487 47.5102C161.777 46.9226 160.797 46.5239 159.608 46.5239C157.167 46.5239 155.519 48.2027 155.519 50.1963C155.519 52.1899 157.146 53.8687 159.921 53.8687C161.673 53.8687 162.716 53.1552 163.238 52.8614V49.5038H158.899V49.4828Z" fill="black"/>
</svg>
