<svg width="279" height="41" viewBox="0 0 279 41" fill="none" xmlns="http://www.w3.org/2000/svg">
<g clip-path="url(#clip0_74_117)">
<path fill-rule="evenodd" clip-rule="evenodd" d="M9.96501 1.33798C10.2692 1.38326 10.5614 1.50248 10.8632 1.56897C10.9894 1.59648 11.1463 1.61253 11.2547 1.56094C11.5789 1.4039 11.8825 1.20386 12.202 1.03593C12.6626 0.792904 13.1259 0.797489 13.5693 1.08121C14.0698 1.4016 14.5703 1.72315 15.0582 2.06132C16.0067 2.71644 16.97 3.35094 17.8825 4.05306C18.8709 4.81193 19.8096 5.63729 20.7712 6.4317C21.2072 6.79279 21.6517 7.14242 22.0786 7.51498C22.219 7.63763 22.3274 7.80443 22.425 7.96663C22.6846 8.40224 22.4718 8.7897 21.9667 8.77365C21.5747 8.76276 21.1809 8.71346 20.7917 8.65729C20.4887 8.61373 20.3614 8.72206 20.3706 9.02641C20.4499 11.4796 20.5252 13.9333 20.6023 16.3876C20.6148 16.7716 20.6411 17.1545 20.6411 17.5385C20.6422 17.9305 20.8397 18.2045 21.1238 18.4372C21.3778 18.6453 21.6323 18.8545 21.8874 19.0614C22.1117 19.2419 22.2275 19.4592 22.1819 19.7618C22.1482 19.9853 22.1539 20.214 22.1374 20.5344C19.7856 18.2985 17.0436 17.0742 13.8963 16.9114C10.752 16.7492 7.91289 17.6909 5.36714 19.6615C5.3329 19.3881 5.3192 19.1628 5.27469 18.9433C5.21249 18.639 5.35515 18.455 5.56801 18.263C5.68728 18.1552 5.794 17.9552 5.79 17.7993C5.70726 14.8973 5.60625 11.9971 5.51494 9.09576C5.50467 8.796 5.37912 8.68194 5.0858 8.7169C4.69432 8.7639 4.30113 8.79313 3.90908 8.83555C3.62831 8.86593 3.36638 8.79428 3.30474 8.50827C3.26765 8.33976 3.34241 8.08929 3.45825 7.95459C4.16474 7.12695 4.94598 6.37954 5.84935 5.75594C6.32186 5.4298 6.80579 5.06527 7.14249 4.61247C7.32966 4.36085 7.24749 3.892 7.24749 3.52059C7.24749 2.96176 7.17387 2.40006 7.20982 1.84466C7.22637 1.57585 7.45807 1.36435 7.77707 1.33626M19.4683 17.2697C19.4204 16.7991 19.3605 16.4122 19.3434 16.0225C19.2863 14.6555 19.2395 13.2885 19.1984 11.922C19.1705 10.9763 19.1362 10.0289 19.1528 9.0843C19.1608 8.58508 18.8931 8.19647 18.3904 8.17297C17.6525 8.13858 16.9157 8.11795 16.179 8.087C16.0284 8.08012 15.8806 8.04458 15.7299 8.02911C14.9675 7.94829 14.2039 7.81875 13.4392 7.805C12.7128 7.79182 11.9835 7.90702 11.2547 7.95574C10.0398 8.03713 8.82253 8.10304 7.60701 8.1873C6.93134 8.23373 6.63859 8.55355 6.65742 9.21154C6.72875 11.8057 6.80579 14.3998 6.88226 16.9934C6.88568 17.1017 6.91251 17.2101 6.92791 17.3201C7.61329 17.0278 8.25415 16.7269 8.91441 16.4787C10.3222 15.9497 11.7854 15.7107 13.2903 15.7049C13.4198 15.7044 13.6578 15.596 13.6624 15.5244C13.7046 14.93 13.7211 14.3322 13.7092 13.7361C13.7 13.281 13.6213 12.8265 13.6042 12.3708C13.583 11.7942 13.8507 11.5134 14.4179 11.5288C15.206 11.5512 15.9941 11.5948 16.7811 11.6475C17.4031 11.6888 17.596 11.9667 17.4585 12.5732C17.4505 12.6093 17.455 12.6494 17.455 12.6872C17.4704 13.8198 17.4807 14.9529 17.5064 16.0855C17.5087 16.2105 17.56 16.4042 17.6468 16.4466C18.2243 16.7297 18.8172 16.9808 19.4666 17.2697H19.4683ZM19.1408 7.24502C19.1887 7.21693 19.4238 7.15732 19.4461 7.05014C19.4786 6.90456 19.397 6.66956 19.2812 6.56582C18.88 6.2053 18.4497 5.87573 18.0171 5.55132C17.2604 4.98503 16.4946 4.43078 15.7322 3.87309C14.9372 3.29362 14.1908 2.62359 13.2521 2.29918C12.9319 2.18856 12.456 2.20919 12.1729 2.37656C11.4196 2.82191 10.7297 3.37845 10.0175 3.89487C9.25966 4.44339 8.50125 4.99191 7.74853 5.5496C7.32282 5.86598 6.89253 6.18008 6.50163 6.53659C6.36809 6.6581 6.34697 6.90513 6.2745 7.09599C6.42915 7.14873 6.59122 7.25935 6.73902 7.24387C7.09797 7.20833 7.44893 7.08625 7.80903 7.04613C8.57372 6.96187 9.3407 6.861 10.1088 6.84953C12.2454 6.81572 14.3843 6.82489 16.5208 6.81916C16.6087 6.81916 16.6972 6.83692 16.7851 6.85183C17.5264 6.97506 18.2688 7.10058 19.1402 7.24616L19.1408 7.24502ZM16.4136 16.0786C16.4136 15.9021 16.417 15.7812 16.4124 15.6602C16.3913 15.0355 16.3679 14.4107 16.3456 13.786C16.3 12.5405 16.4204 12.4964 15.0548 12.4574C15.0303 12.4562 15.0046 12.4516 14.9789 12.4494C14.7284 12.4304 14.5954 12.5342 14.6057 12.8013C14.6371 13.6811 14.6536 14.5615 14.7061 15.4401C14.7153 15.5714 14.8688 15.7714 14.9903 15.8041C15.4349 15.9227 15.8954 15.9835 16.4136 16.0781V16.0786ZM8.6325 3.32457C8.88588 3.32686 9.23513 3.04831 9.18947 2.81732C9.16379 2.68664 8.96235 2.50093 8.83965 2.49921C8.59198 2.49692 8.29067 2.5359 8.2707 2.90444C8.25643 3.16065 8.36314 3.3154 8.63307 3.324L8.6325 3.32457Z" fill="black"/>
<path fill-rule="evenodd" clip-rule="evenodd" d="M7.10653 40.8611C6.61975 40.5263 6.11699 40.2128 5.64961 39.8529C4.07229 38.6378 2.71809 37.2175 1.70972 35.4796C0.846871 33.9928 0.363516 32.3834 0.0958722 30.6971C0.0627735 30.4788 0.0325281 30.2593 0 30.0409V28.1219C0.363516 28.0549 0.725319 27.9884 1.08998 27.9202C0.895949 30.704 1.48545 33.2856 2.90812 35.6946C4.35591 38.1471 6.51132 39.6677 9.19803 40.6759C8.67701 40.7161 8.25471 40.7464 7.83242 40.7848C7.74225 40.7934 7.65437 40.8336 7.56478 40.8594H7.10653V40.8611Z" fill="black"/>
<path fill-rule="evenodd" clip-rule="evenodd" d="M17.5732 40.509C23.2952 38.1911 25.4598 33.7445 25.3639 27.8833C25.6726 27.9389 26.0293 27.9807 26.3694 28.0782C26.471 28.1074 26.5914 28.292 26.5943 28.4083C26.6667 30.3932 26.3358 32.3007 25.5642 34.1428C24.7328 36.1283 23.3917 37.7177 21.8383 39.1437C21.2631 39.671 20.6011 40.1043 19.9591 40.5531C19.8073 40.6591 19.579 40.6958 19.3862 40.6958C18.9205 40.6947 18.4543 40.6591 17.9897 40.6242C17.8596 40.6139 17.7335 40.5548 17.5732 40.5095V40.509Z" fill="black"/>
<path fill-rule="evenodd" clip-rule="evenodd" d="M8.63592 10.4553C8.63592 10.3275 8.64049 10.2002 8.63592 10.0724C8.62508 9.7738 8.77745 9.62936 9.06107 9.59669C9.56269 9.53823 10.062 9.46887 10.5648 9.42187C10.8804 9.39207 11.2091 9.70731 11.2678 10.108C11.3557 10.7023 11.4117 11.3024 11.4961 11.8985C11.5475 12.2665 11.37 12.4585 11.0424 12.5261C10.474 12.6436 9.90338 12.7508 9.33043 12.8465C9.04167 12.8947 8.86134 12.7474 8.82539 12.4579C8.74435 11.7931 8.6753 11.1259 8.60168 10.4587C8.61253 10.4576 8.62394 10.4564 8.63535 10.4553H8.63592ZM10.7622 11.4984C10.7622 11.3781 10.7702 11.2755 10.7611 11.174C10.6957 10.4561 10.3323 10.1183 9.67112 10.1607C9.19176 10.1916 9.19404 10.1905 9.30132 10.6886C9.32244 10.7872 9.31274 10.8926 9.32358 10.9935C9.35896 11.3168 9.38921 11.6406 9.44627 11.9598C9.45826 12.0286 9.57981 12.1341 9.64372 12.1284C9.89425 12.1083 10.1431 12.0521 10.3919 12.0063C10.6829 11.9524 10.8541 11.8091 10.7628 11.499L10.7622 11.4984Z" fill="black"/>
<path d="M37.0483 35.9055V15.8447H43.6521C45.3498 15.8447 46.7954 16.129 47.9892 16.697C49.183 17.2656 50.1509 18.0296 50.8922 18.9897C51.634 19.9497 52.1745 21.0244 52.5157 22.2137C52.8558 23.403 53.0265 24.6239 53.0265 25.8751C53.0265 27.0214 52.8655 28.1821 52.5437 29.3571C52.2218 30.5321 51.6974 31.6142 50.9698 32.6023C50.2422 33.591 49.2698 34.3889 48.0525 34.9953C46.8353 35.6023 45.331 35.9049 43.5408 35.9049H37.0489L37.0483 35.9055ZM40.6721 32.3805H43.918C44.9156 32.3805 45.7556 32.1874 46.4364 31.7999C47.1166 31.413 47.6645 30.9023 48.0799 30.2667C48.4954 29.631 48.7984 28.9295 48.9896 28.1603C49.1807 27.3917 49.2766 26.63 49.2766 25.8751C49.2766 25.0727 49.1785 24.2846 48.9827 23.5108C48.7864 22.737 48.4834 22.0349 48.0731 21.4044C47.6622 20.7739 47.14 20.2724 46.506 19.8999C45.872 19.5273 45.1119 19.341 44.2256 19.341H40.6715V32.3805H40.6721Z" fill="#000100"/>
<path d="M56.9572 19.4268C56.398 19.4268 55.9152 19.2194 55.5095 18.8038C55.1037 18.3883 54.9011 17.8942 54.9011 17.321C54.9011 16.7479 55.1014 16.2584 55.5026 15.8526C55.9032 15.4468 56.3889 15.2439 56.9578 15.2439C57.545 15.2439 58.0352 15.4445 58.4267 15.8457C58.8182 16.2469 59.0139 16.7393 59.0139 17.3216C59.0139 17.904 58.8159 18.4009 58.4193 18.8118C58.0233 19.2228 57.5353 19.428 56.9572 19.428V19.4268ZM55.2087 35.9053V21.261H58.7063V35.9053H55.2087Z" fill="#000100"/>
<path d="M67.4495 36.2494C66.0788 36.2494 64.8964 35.9341 63.9028 35.3037C62.9099 34.6732 62.1446 33.7825 61.6082 32.631C61.0718 31.4801 60.8035 30.1257 60.8035 28.569C60.8035 26.9928 61.0769 25.6315 61.6225 24.4852C62.168 23.3389 62.9378 22.4573 63.9308 21.8412C64.9243 21.225 66.0971 20.9172 67.4495 20.9172C68.6057 20.9172 69.6552 21.166 70.5979 21.6623C71.5395 22.1593 72.2911 22.921 72.8503 23.9481C73.4096 24.9752 73.6898 26.2815 73.6898 27.8669C73.6898 28.1156 73.683 28.4182 73.6687 28.7765C73.655 29.1347 73.6293 29.4952 73.5916 29.8586H64.2595C64.2966 30.5275 64.4484 31.1127 64.7143 31.6136C64.9803 32.1146 65.3461 32.5043 65.8129 32.7812C66.2791 33.0586 66.8292 33.1967 67.4638 33.1967C68.1446 33.1967 68.737 33.0798 69.2409 32.8459C69.7442 32.6121 70.2201 32.2372 70.6675 31.7214L72.6826 33.8564C72.0668 34.5729 71.325 35.1512 70.4581 35.5902C69.5901 36.0293 68.588 36.2494 67.4501 36.2494H67.4495ZM64.2738 27.0644H70.304C70.2572 26.4242 70.1174 25.8728 69.8846 25.4091C69.6512 24.946 69.3248 24.5901 68.9048 24.3419C68.4847 24.0937 67.9768 23.9693 67.3799 23.9693C66.5593 23.9693 65.8597 24.2273 65.281 24.7431C64.7023 25.259 64.3668 26.0327 64.2732 27.0644H64.2738Z" fill="#000100"/>
<path d="M81.1747 35.9055V15.8447H94.4096V19.3697H84.7979V23.7831H90.4926V27.308H84.7979V32.3519H94.9968V35.9055H81.1741H81.1747Z" fill="#000100"/>
<path d="M96.9559 35.9053V21.261H100.454V22.8372C100.714 22.2738 101.125 21.8124 101.684 21.4541C102.244 21.0959 102.832 20.9165 103.447 20.9165C104.464 20.9165 105.322 21.2747 106.022 21.9912L105.533 25.2726C105.15 24.9481 104.777 24.7183 104.413 24.5848C104.049 24.4512 103.648 24.3841 103.21 24.3841C102.632 24.3841 102.138 24.5229 101.727 24.7997C101.316 25.0765 101.001 25.4783 100.783 26.0033C100.563 26.5289 100.454 27.1594 100.454 27.8948V35.9048H96.9565L96.9559 35.9053Z" fill="#000100"/>
<path d="M112.149 36.2492C110.312 36.2492 108.871 35.5712 107.827 34.2145C106.782 32.8584 106.26 30.9761 106.26 28.5688C106.26 27.0402 106.507 25.703 107.001 24.5567C107.495 23.4104 108.188 22.5168 109.079 21.8771C109.97 21.2375 111.008 20.9171 112.192 20.9171C113.46 20.9171 114.501 21.3945 115.312 22.35V16.8333L118.795 15.2141V35.9053H115.312V34.7017C114.622 35.7334 113.568 36.2492 112.15 36.2492H112.149ZM112.723 32.8246C113.32 32.8246 113.829 32.7168 114.248 32.5025C114.668 32.2881 115.022 31.9648 115.311 31.535V25.617C115.022 25.2158 114.647 24.9006 114.185 24.6713C113.723 24.4421 113.236 24.3274 112.723 24.3274C111.781 24.3274 111.053 24.6931 110.541 25.4239C110.028 26.1547 109.771 27.203 109.771 28.5694C109.771 29.467 109.887 30.2339 110.121 30.869C110.354 31.5046 110.69 31.9895 111.128 32.3236C111.567 32.6578 112.098 32.8252 112.723 32.8252V32.8246Z" fill="#000100"/>
<path d="M124.307 35.9053L120.362 21.261H123.804L125.538 28.5832C125.603 28.8411 125.671 29.154 125.741 29.5214C125.811 29.8894 125.869 30.231 125.916 30.5463C125.981 30.2408 126.056 29.9014 126.14 29.5289C126.224 29.1563 126.299 28.8411 126.364 28.5832L128.281 21.261H131.331L133.234 28.5832C133.299 28.8508 133.376 29.1707 133.464 29.5432C133.553 29.9158 133.625 30.2551 133.681 30.5606C133.738 30.2453 133.798 29.9066 133.863 29.5432C133.928 29.1804 133.994 28.8606 134.059 28.5832L135.836 21.261H139.277L135.29 35.9053H132.198L130.323 28.5832C130.258 28.3161 130.174 27.9624 130.072 27.5228C129.97 27.0832 129.881 26.6917 129.806 26.3478C129.741 26.6917 129.656 27.0832 129.554 27.5228C129.452 27.9624 129.368 28.3161 129.303 28.5832L127.414 35.9053H124.308H124.307Z" fill="#000100"/>
<path d="M145.125 36.2493C143.568 36.2493 142.334 35.8171 141.425 34.9522C140.516 34.0879 140.061 32.9152 140.061 31.4347C140.061 30.4792 140.296 29.6413 140.767 28.9197C141.238 28.1986 141.896 27.6398 142.74 27.2432C143.584 26.8471 144.57 26.6482 145.7 26.6482C146.324 26.6482 146.928 26.7078 147.511 26.827C148.094 26.9463 148.605 27.1159 149.044 27.3354V26.4184C149.044 25.5965 148.818 24.978 148.365 24.5625C147.913 24.1469 147.248 23.9394 146.372 23.9394C145.672 23.9394 144.954 24.0684 144.217 24.3263C143.48 24.5842 142.734 24.9665 141.979 25.4727L140.929 22.6498C141.75 22.0961 142.664 21.6686 143.671 21.3677C144.679 21.0667 145.696 20.916 146.722 20.916C148.643 20.916 150.079 21.3814 151.031 22.3134C151.983 23.2448 152.458 24.6324 152.458 26.4757V35.9042H149.045V34.7293C148.559 35.2262 147.984 35.6033 147.317 35.8613C146.65 36.1192 145.92 36.2481 145.127 36.2481L145.125 36.2493ZM144.133 19.3409C143.573 19.3409 143.106 19.1501 142.733 18.7678C142.361 18.3855 142.174 17.908 142.174 17.3349C142.174 16.752 142.361 16.2671 142.733 15.8802C143.106 15.4933 143.573 15.2996 144.133 15.2996C144.692 15.2996 145.161 15.4933 145.539 15.8802C145.916 16.2671 146.105 16.752 146.105 17.3349C146.105 17.908 145.916 18.3855 145.539 18.7678C145.161 19.1501 144.692 19.3409 144.133 19.3409ZM145.937 33.2258C146.516 33.2258 147.073 33.1089 147.609 32.8745C148.145 32.6406 148.624 32.3088 149.044 31.8789V30.1451C148.643 29.9445 148.197 29.7892 147.707 29.6797C147.217 29.5702 146.73 29.5146 146.245 29.5146C145.377 29.5146 144.694 29.6843 144.195 30.023C143.696 30.3623 143.447 30.8329 143.447 31.4347C143.447 31.9981 143.666 32.4377 144.104 32.753C144.542 33.0682 145.153 33.2258 145.936 33.2258H145.937ZM149.393 19.3409C148.814 19.3409 148.339 19.1501 147.966 18.7678C147.593 18.3855 147.406 17.908 147.406 17.3349C147.406 16.752 147.593 16.2671 147.966 15.8802C148.339 15.4933 148.814 15.2996 149.393 15.2996C149.944 15.2996 150.407 15.4933 150.785 15.8802C151.163 16.2671 151.351 16.752 151.351 17.3349C151.351 17.908 151.163 18.3855 150.785 18.7678C150.407 19.1501 149.943 19.3409 149.393 19.3409Z" fill="#000100"/>
<path d="M154.947 35.9053V21.261H158.445V22.8372C158.706 22.2738 159.117 21.8124 159.676 21.4541C160.235 21.0959 160.823 20.9165 161.439 20.9165C162.455 20.9165 163.313 21.2747 164.013 21.9912L163.524 25.2726C163.141 24.9481 162.768 24.7183 162.404 24.5848C162.041 24.4512 161.639 24.3841 161.201 24.3841C160.623 24.3841 160.128 24.5229 159.718 24.7997C159.307 25.0765 158.993 25.4783 158.774 26.0033C158.554 26.5289 158.445 27.1594 158.445 27.8948V35.9048H154.948L154.947 35.9053Z" fill="#000100"/>
<path d="M165.006 35.9053V21.261H168.504V22.6222C168.961 22.0302 169.476 21.5974 170.05 21.3252C170.624 21.0529 171.274 20.9171 172.002 20.9171C172.85 20.9171 173.578 21.0942 174.184 21.4473C174.79 21.8009 175.261 22.3167 175.597 22.9948C176.073 22.3259 176.683 21.8129 177.43 21.4541C178.176 21.0959 179.02 20.9165 179.962 20.9165C181.716 20.9165 183.041 21.3991 183.936 22.3637C184.831 23.329 185.279 24.7619 185.279 26.6625V35.9048H181.796V27.8948C181.796 26.6722 181.6 25.7718 181.209 25.194C180.817 24.6163 180.211 24.3268 179.39 24.3268C178.83 24.3268 178.366 24.4558 177.998 24.7137C177.629 24.9716 177.352 25.3608 177.166 25.8818C176.979 26.4023 176.885 27.0591 176.885 27.8524V35.9053H173.402V27.8954C173.402 26.663 173.211 25.7603 172.829 25.1872C172.446 24.614 171.84 24.3274 171.009 24.3274C170.161 24.3274 169.531 24.6094 169.12 25.1728C168.71 25.7368 168.505 26.6109 168.505 27.795V35.9053H165.007H165.006Z" fill="#000100"/>
<path d="M193.897 36.2494C192.526 36.2494 191.343 35.9341 190.35 35.3037C189.357 34.6732 188.592 33.7825 188.055 32.631C187.519 31.4795 187.251 30.1257 187.251 28.569C187.251 26.9928 187.524 25.6315 188.069 24.4852C188.615 23.3389 189.385 22.4573 190.378 21.8412C191.371 21.225 192.545 20.9172 193.897 20.9172C195.053 20.9172 196.102 21.166 197.045 21.6623C197.986 22.1593 198.738 22.921 199.297 23.9481C199.857 24.9752 200.137 26.2815 200.137 27.8669C200.137 28.1156 200.13 28.4182 200.116 28.7765C200.102 29.1347 200.076 29.4952 200.039 29.8586H190.707C190.744 30.5275 190.896 31.1127 191.162 31.6136C191.428 32.1146 191.793 32.5043 192.26 32.7812C192.726 33.0586 193.276 33.1967 193.911 33.1967C194.592 33.1967 195.184 33.0798 195.688 32.8459C196.192 32.6121 196.667 32.2372 197.115 31.7214L199.129 33.8564C198.514 34.5729 197.772 35.1512 196.905 35.5902C196.038 36.0293 195.035 36.2494 193.897 36.2494ZM190.721 27.0644H196.751C196.704 26.4242 196.564 25.8728 196.331 25.4091C196.098 24.946 195.772 24.5901 195.352 24.3419C194.932 24.0931 194.424 23.9693 193.827 23.9693C193.006 23.9693 192.307 24.2273 191.728 24.7431C191.149 25.259 190.814 26.0327 190.721 27.0644H190.721Z" fill="#000100"/>
<path d="M208.433 36.2492C207.779 36.2492 207.218 36.13 206.747 35.891C206.276 35.652 205.839 35.2657 205.439 34.7304V35.9053H201.941V16.8333L205.439 15.2141V22.4073C205.802 21.9299 206.253 21.5619 206.788 21.304C207.324 21.0461 207.91 20.9171 208.544 20.9171C209.729 20.9171 210.764 21.2375 211.65 21.8771C212.536 22.5174 213.229 23.4127 213.728 24.5641C214.227 25.7156 214.476 27.05 214.476 28.5694C214.476 30.9864 213.942 32.8704 212.875 34.222C211.806 35.5735 210.325 36.2498 208.433 36.2498V36.2492ZM208.013 32.8246C208.964 32.8246 209.694 32.4566 210.203 31.7212C210.711 30.9859 210.965 29.9347 210.965 28.5688C210.965 27.203 210.711 26.1541 210.203 25.4233C209.694 24.6925 208.964 24.3269 208.013 24.3269C207.49 24.3269 206.996 24.4444 206.53 24.6782C206.064 24.9121 205.7 25.225 205.439 25.6165V31.5344C205.728 31.9545 206.082 32.2749 206.502 32.4944C206.921 32.7145 207.425 32.824 208.013 32.824L208.013 32.8246Z" fill="#000100"/>
<path d="M222.227 36.2493C220.212 36.2493 218.622 35.5667 217.456 34.2002C216.29 32.8344 215.708 30.967 215.708 28.5976C215.708 27.0311 215.974 25.6721 216.505 24.5212C217.036 23.3703 217.79 22.4813 218.764 21.856C219.739 21.2307 220.893 20.9177 222.227 20.9177C223.551 20.9177 224.699 21.2284 225.668 21.8491C226.639 22.4699 227.385 23.3537 227.907 24.5C228.429 25.6463 228.691 27.0076 228.691 28.5838C228.691 30.1697 228.432 31.5356 227.915 32.6819C227.397 33.8283 226.653 34.7098 225.683 35.3254C224.713 35.9415 223.561 36.2499 222.227 36.2499V36.2493ZM222.227 32.8246C223.169 32.8246 223.902 32.4521 224.424 31.707C224.946 30.9619 225.207 29.921 225.207 28.5832C225.207 27.2455 224.944 26.2023 224.416 25.4526C223.89 24.7023 223.16 24.3275 222.227 24.3275C221.285 24.3275 220.548 24.7052 220.016 25.4595C219.485 26.2143 219.219 27.2604 219.219 28.5976C219.219 29.9158 219.485 30.9498 220.016 31.7001C220.548 32.4504 221.285 32.8246 222.227 32.8246Z" fill="#000100"/>
<path d="M230.691 35.9054V16.8615L234.19 15.2136V22.6791C234.646 22.087 235.195 21.6451 235.833 21.3539C236.472 21.0628 237.202 20.9172 238.023 20.9172C239.124 20.9172 240.045 21.1539 240.787 21.6262C241.528 22.099 242.085 22.7725 242.459 23.6466C242.831 24.5207 243.018 25.5644 243.018 26.7778V35.9054H239.534V27.8811C239.534 26.6775 239.334 25.7845 238.932 25.2016C238.531 24.6187 237.878 24.3275 236.973 24.3275C236.022 24.3275 235.321 24.6118 234.868 25.1804C234.416 25.749 234.19 26.6299 234.19 27.8238V35.9054H230.692H230.691Z" fill="#000100"/>
<path d="M245.662 35.9053V21.261H249.16V22.8372C249.421 22.2738 249.832 21.8124 250.391 21.4541C250.95 21.0959 251.538 20.9165 252.154 20.9165C253.17 20.9165 254.028 21.2747 254.728 21.9912L254.239 25.2726C253.856 24.9481 253.483 24.7183 253.119 24.5848C252.756 24.4512 252.355 24.3841 251.916 24.3841C251.338 24.3841 250.843 24.5229 250.433 24.7997C250.022 25.0765 249.708 25.4783 249.489 26.0033C249.27 26.5289 249.161 27.1594 249.161 27.8948V35.9048H245.662L245.662 35.9053Z" fill="#000100"/>
<path d="M261.611 36.2494C260.24 36.2494 259.058 35.9341 258.064 35.3037C257.071 34.6732 256.306 33.7825 255.769 32.631C255.233 31.4795 254.965 30.1257 254.965 28.569C254.965 26.9928 255.238 25.6315 255.784 24.4852C256.329 23.3389 257.099 22.4573 258.093 21.8412C259.086 21.225 260.259 20.9172 261.611 20.9172C262.768 20.9172 263.816 21.166 264.759 21.6623C265.701 22.1593 266.452 22.921 267.012 23.9481C267.571 24.9752 267.851 26.2815 267.851 27.8669C267.851 28.1156 267.844 28.4182 267.831 28.7765C267.817 29.1347 267.791 29.4952 267.754 29.8586H258.421C258.458 30.5275 258.61 31.1127 258.876 31.6136C259.142 32.1146 259.507 32.5043 259.974 32.7812C260.44 33.0586 260.991 33.1967 261.626 33.1967C262.306 33.1967 262.898 33.0798 263.402 32.8459C263.906 32.6121 264.381 32.2372 264.829 31.7214L266.844 33.8564C266.228 34.5729 265.487 35.1512 264.619 35.5902C263.752 36.0293 262.749 36.2494 261.611 36.2494ZM258.436 27.0644H264.465C264.419 26.4242 264.279 25.8728 264.046 25.4091C263.812 24.946 263.487 24.5901 263.066 24.3419C262.647 24.0931 262.138 23.9693 261.541 23.9693C260.721 23.9693 260.021 24.2273 259.442 24.7431C258.864 25.259 258.528 26.0327 258.435 27.0644H258.436Z" fill="#000100"/>
<path d="M269.823 35.9053V21.261H273.321V22.8372C273.582 22.2738 273.993 21.8124 274.552 21.4541C275.111 21.0959 275.699 20.9165 276.315 20.9165C277.331 20.9165 278.189 21.2747 278.889 21.9912L278.4 25.2726C278.017 24.9481 277.644 24.7183 277.28 24.5848C276.917 24.4512 276.516 24.3841 276.077 24.3841C275.499 24.3841 275.004 24.5229 274.594 24.7997C274.183 25.0765 273.869 25.4783 273.65 26.0033C273.43 26.5289 273.321 27.1594 273.321 27.8948V35.9048H269.823L269.823 35.9053Z" fill="#000100"/>
<path fill-rule="evenodd" clip-rule="evenodd" d="M23.8939 28.5981C24.4155 32.6911 21.8281 35.7724 18.0634 35.6865C15.416 35.6263 13.0928 33.5617 12.6477 30.9109C12.5707 30.4541 12.6808 30.1967 13.1031 30.0356C13.478 29.8923 13.8416 29.7164 14.2519 29.5376C14.342 30.074 14.3803 30.5452 14.503 30.9905C14.9943 32.7805 16.6373 33.9962 18.4137 33.9148C20.261 33.8317 22.0038 32.4865 22.1054 30.6449C22.1784 29.3261 22.9854 29.1014 23.8944 28.5987L23.8939 28.5981Z" fill="#030404"/>
<path fill-rule="evenodd" clip-rule="evenodd" d="M3.07591 29.431C2.53834 26.105 4.36048 23.1967 7.34565 22.5273C10.4352 21.8354 13.332 23.5905 14.1646 26.6615C14.4813 27.829 14.4596 27.8571 12.7276 28.4526C12.5461 28.3718 12.5912 28.1976 12.5815 28.0543C12.4274 25.8413 10.9163 24.2513 8.86876 24.151C6.83433 24.0513 5.05841 25.4091 4.81759 27.5545C4.67948 28.7856 3.89196 29.0029 3.07477 29.4316L3.07591 29.431Z" fill="#030403"/>
</g>
<defs>
<clipPath id="clip0_74_117">
<rect width="278.889" height="40" fill="white" transform="translate(0 0.861084)"/>
</clipPath>
</defs>
</svg>
