<svg width="180" height="114" viewBox="0 0 180 114" fill="none" xmlns="http://www.w3.org/2000/svg">
<path d="M164.8 61V64.7C164.8 83.3 149.7 98.5 131 98.5C112.9 98.5 98 84.3 97.3 66.2L97.1 60.8L82.5 67.5L82.8 70.1C85.5 94.8 106.3 113.3 131.1 113.3C157.9 113.3 179.7 91.5 179.7 64.7V61V52.5L164.8 61Z" fill="white"/>
<path d="M48.6 0C73.4 0 94.2 18.6 96.9 43.2L97.2 45.8L82.6 52.5L82.4 47.1C81.6 29 66.8 14.8 48.7 14.8C30.1 14.8 14.9 29.9 14.9 48.6V52.3L0 60.8V48.7C0 21.8 21.8 0 48.6 0Z" fill="white"/>
</svg>
