<svg width="1040" height="1257" viewBox="0 0 1040 1257" fill="none" xmlns="http://www.w3.org/2000/svg">
<path fill-rule="evenodd" clip-rule="evenodd" d="M512 1.5H830C885.342 1.5 938.417 23.4845 977.55 62.6171C1016.68 101.75 1038.67 154.825 1038.67 210.167C1038.67 265.509 1016.68 318.584 977.55 357.716C938.417 396.849 885.342 418.833 830 418.833H225.984C170.377 418.833 117.048 440.923 77.7277 480.243C38.4075 519.563 16.3177 572.893 16.3177 628.5C16.3177 684.107 38.4075 737.437 77.7277 776.757C117.048 816.077 170.377 838.167 225.984 838.167H830C885.342 838.167 938.417 860.151 977.55 899.284C1016.68 938.416 1038.67 991.492 1038.67 1046.83C1038.67 1102.18 1016.68 1155.25 977.55 1194.38C938.417 1233.52 885.342 1255.5 830 1255.5H225.984C170.643 1255.5 117.567 1233.52 78.4348 1194.38C39.6345 1155.58 17.6923 1103.08 17.3225 1048.24L32.1414 1061.83L32.8171 1061.09L17.3177 1046.88C17.3177 1046.87 17.3177 1046.85 17.3177 1046.83H17.265L17.0775 1046.66L16.7396 1046.35L16.4017 1046.66L0.662109 1061.09L1.33783 1061.83L16.3215 1048.09C16.652 1103.24 38.7042 1156.07 77.7277 1195.09C117.048 1234.41 170.377 1256.5 225.984 1256.5H830C885.607 1256.5 938.937 1234.41 978.257 1195.09C1017.58 1155.77 1039.67 1102.44 1039.67 1046.83C1039.67 991.226 1017.58 937.897 978.257 898.577C938.937 859.256 885.607 837.167 830 837.167H225.984C170.643 837.167 117.567 815.182 78.4348 776.05C39.3022 736.917 17.3177 683.842 17.3177 628.5C17.3177 573.158 39.3022 520.083 78.4348 480.95C117.567 441.818 170.643 419.833 225.984 419.833H830C885.607 419.833 938.937 397.743 978.257 358.423C1017.58 319.103 1039.67 265.774 1039.67 210.167C1039.67 154.56 1017.58 101.23 978.257 61.91C938.937 22.5898 885.607 0.5 830 0.5H512V1.5Z" fill="#857373"/>
</svg>
